<?xml version="1.0" encoding="UTF-8" standalone="no"?><svg xmlns="http://www.w3.org/2000/svg" xmlns:xlink="http://www.w3.org/1999/xlink" contentScriptType="application/ecmascript" contentStyleType="text/css" height="1069px" preserveAspectRatio="none" style="width:881px;height:1069px;" version="1.1" viewBox="0 0 881 1069" width="881px" zoomAndPan="magnify"><defs><filter height="300%" id="f1n678p86ruryt" width="300%" x="-1" y="-1"><feGaussianBlur result="blurOut" stdDeviation="2.0"/><feColorMatrix in="blurOut" result="blurOut2" type="matrix" values="0 0 0 0 0 0 0 0 0 0 0 0 0 0 0 0 0 0 .4 0"/><feOffset dx="4.0" dy="4.0" in="blurOut2" result="blurOut3"/><feBlend in="SourceGraphic" in2="blurOut3" mode="normal"/></filter></defs><g><!--MD5=[5ce2faeb6f74307e523abdc36a9e0530]
entity cyclic_file_read--><rect fill="#ADD8E6" filter="url(#f1n678p86ruryt)" height="172.5433" style="stroke: #A80036; stroke-width: 1.5;" width="139" x="396" y="153"/><rect fill="#ADD8E6" height="5" style="stroke: #A80036; stroke-width: 1.5;" width="10" x="391" y="158"/><rect fill="#ADD8E6" height="5" style="stroke: #A80036; stroke-width: 1.5;" width="10" x="391" y="315.5433"/><text fill="#000000" font-family="sans-serif" font-size="14" lengthAdjust="spacingAndGlyphs" textLength="98" x="406" y="177.9659">cyclic-file-read</text><text fill="#000000" font-family="sans-serif" font-size="14" lengthAdjust="spacingAndGlyphs" textLength="65" x="406" y="197.0339">/proc/stat</text><text fill="#000000" font-family="sans-serif" font-size="14" lengthAdjust="spacingAndGlyphs" textLength="91" x="406" y="216.1018">/proc/net/dev</text><text fill="#000000" font-family="sans-serif" font-size="14" lengthAdjust="spacingAndGlyphs" textLength="99" x="406" y="235.1697">/proc/diskstats</text><text fill="#000000" font-family="sans-serif" font-size="14" lengthAdjust="spacingAndGlyphs" textLength="92" x="406" y="254.2376">/proc/pid/stat</text><text fill="#000000" font-family="sans-serif" font-size="14" lengthAdjust="spacingAndGlyphs" textLength="105" x="406" y="273.3055">/proc/pid/statm</text><text fill="#000000" font-family="sans-serif" font-size="14" lengthAdjust="spacingAndGlyphs" textLength="79" x="406" y="292.3734">/proc/pid/io</text><text fill="#000000" font-family="sans-serif" font-size="14" lengthAdjust="spacingAndGlyphs" textLength="119" x="406" y="311.4414">/sys/class/hwmon</text><!--MD5=[2e5fbbd880de99a26a7c30320e2050c9]
entity epoll_psi--><rect fill="#ADD8E6" filter="url(#f1n678p86ruryt)" height="39.0679" style="stroke: #A80036; stroke-width: 1.5;" width="78" x="792.5" y="220"/><rect fill="#ADD8E6" height="5" style="stroke: #A80036; stroke-width: 1.5;" width="10" x="787.5" y="225"/><rect fill="#ADD8E6" height="5" style="stroke: #A80036; stroke-width: 1.5;" width="10" x="787.5" y="249.0679"/><text fill="#000000" font-family="sans-serif" font-size="14" lengthAdjust="spacingAndGlyphs" textLength="58" x="802.5" y="244.9659">epoll-psi</text><!--MD5=[f34387b3482d0090417cf3999a5c72dc]
entity inotify_pacct--><rect fill="#ADD8E6" filter="url(#f1n678p86ruryt)" height="39.0679" style="stroke: #A80036; stroke-width: 1.5;" width="103" x="396" y="387"/><rect fill="#ADD8E6" height="5" style="stroke: #A80036; stroke-width: 1.5;" width="10" x="391" y="392"/><rect fill="#ADD8E6" height="5" style="stroke: #A80036; stroke-width: 1.5;" width="10" x="391" y="416.0679"/><text fill="#000000" font-family="sans-serif" font-size="14" lengthAdjust="spacingAndGlyphs" textLength="83" x="406" y="411.9659">inotify-pacct</text><!--MD5=[5f8551f27068bb59309e98896d6815d2]
entity sysinfo--><rect fill="#ADD8E6" filter="url(#f1n678p86ruryt)" height="39.0679" style="stroke: #A80036; stroke-width: 1.5;" width="108" x="522.5" y="12.5"/><rect fill="#ADD8E6" height="5" style="stroke: #A80036; stroke-width: 1.5;" width="10" x="517.5" y="17.5"/><rect fill="#ADD8E6" height="5" style="stroke: #A80036; stroke-width: 1.5;" width="10" x="517.5" y="41.5679"/><text fill="#000000" font-family="sans-serif" font-size="14" lengthAdjust="spacingAndGlyphs" textLength="88" x="532.5" y="37.4659">cyclic-sysinfo</text><!--MD5=[f7097cbeb59cffb589b6e2e5d35de850]
entity inotify_coredump--><rect fill="#ADD8E6" filter="url(#f1n678p86ruryt)" height="39.0679" style="stroke: #A80036; stroke-width: 1.5;" width="136" x="534.5" y="387"/><rect fill="#ADD8E6" height="5" style="stroke: #A80036; stroke-width: 1.5;" width="10" x="529.5" y="392"/><rect fill="#ADD8E6" height="5" style="stroke: #A80036; stroke-width: 1.5;" width="10" x="529.5" y="416.0679"/><text fill="#000000" font-family="sans-serif" font-size="14" lengthAdjust="spacingAndGlyphs" textLength="116" x="544.5" y="411.9659">inotify-coredump</text><!--MD5=[59760bf71e98d7d37472083283670f13]
entity dbus_systemd_signals--><rect fill="#ADD8E6" filter="url(#f1n678p86ruryt)" height="39.0679" style="stroke: #A80036; stroke-width: 1.5;" width="168" x="665.5" y="12.5"/><rect fill="#ADD8E6" height="5" style="stroke: #A80036; stroke-width: 1.5;" width="10" x="660.5" y="17.5"/><rect fill="#ADD8E6" height="5" style="stroke: #A80036; stroke-width: 1.5;" width="10" x="660.5" y="41.5679"/><text fill="#000000" font-family="sans-serif" font-size="14" lengthAdjust="spacingAndGlyphs" textLength="148" x="675.5" y="37.4659">dbus-systemd-signals</text><!--MD5=[b92492dc78a02b7e7966012552e815b8]
entity posix_mq_to_mqtt--><rect fill="#ADD8E6" filter="url(#f1n678p86ruryt)" height="39.0679" style="stroke: #A80036; stroke-width: 1.5;" width="187" x="570" y="220"/><rect fill="#ADD8E6" height="5" style="stroke: #A80036; stroke-width: 1.5;" width="10" x="565" y="225"/><rect fill="#ADD8E6" height="5" style="stroke: #A80036; stroke-width: 1.5;" width="10" x="565" y="249.0679"/><text fill="#000000" font-family="sans-serif" font-size="14" lengthAdjust="spacingAndGlyphs" textLength="167" x="580" y="244.9659">posix-mq-to-mqtt-bridge</text><!--MD5=[e88573ea86546730cc5ccdd936e33ca0]
entity systemd_coredump--><rect fill="#FEFECE" filter="url(#f1n678p86ruryt)" height="39.0679" style="stroke: #A80036; stroke-width: 1.5;" width="150" x="27.5" y="12.5"/><rect fill="#FEFECE" height="5" style="stroke: #A80036; stroke-width: 1.5;" width="10" x="22.5" y="17.5"/><rect fill="#FEFECE" height="5" style="stroke: #A80036; stroke-width: 1.5;" width="10" x="22.5" y="41.5679"/><text fill="#000000" font-family="sans-serif" font-size="14" lengthAdjust="spacingAndGlyphs" textLength="130" x="37.5" y="37.4659">systemd-coredump</text><!--MD5=[ee26f082c12a098df4eb407513794628]
entity systemd_journal--><path d="M213,18 C213,8 277.5,8 277.5,8 C277.5,8 342,8 342,18 L342,46.0679 C342,56.0679 277.5,56.0679 277.5,56.0679 C277.5,56.0679 213,56.0679 213,46.0679 L213,18 " fill="#FEFECE" filter="url(#f1n678p86ruryt)" style="stroke: #000000; stroke-width: 1.5;"/><path d="M213,18 C213,28 277.5,28 277.5,28 C277.5,28 342,28 342,18 " fill="none" style="stroke: #000000; stroke-width: 1.5;"/><text fill="#000000" font-family="sans-serif" font-size="14" lengthAdjust="spacingAndGlyphs" textLength="109" x="223" y="46.9659">systemd-journal</text><!--MD5=[e3d2f96a109b763d20b21ce7b1f49095]
entity sd_journal_filter--><rect fill="#ADD8E6" filter="url(#f1n678p86ruryt)" height="39.0679" style="stroke: #A80036; stroke-width: 1.5;" width="166" x="194.5" y="220"/><rect fill="#ADD8E6" height="5" style="stroke: #A80036; stroke-width: 1.5;" width="10" x="189.5" y="225"/><rect fill="#ADD8E6" height="5" style="stroke: #A80036; stroke-width: 1.5;" width="10" x="189.5" y="249.0679"/><text fill="#000000" font-family="sans-serif" font-size="14" lengthAdjust="spacingAndGlyphs" textLength="146" x="204.5" y="244.9659">systemd-journal-filter</text><!--MD5=[99421ef4019664d1c01a50d62df9c5e6]
entity filtered_journal_files--><path d="M6,225.5 C6,215.5 82.5,215.5 82.5,215.5 C82.5,215.5 159,215.5 159,225.5 L159,253.5679 C159,263.5679 82.5,263.5679 82.5,263.5679 C82.5,263.5679 6,263.5679 6,253.5679 L6,225.5 " fill="#FEFECE" filter="url(#f1n678p86ruryt)" style="stroke: #000000; stroke-width: 1.5;"/><path d="M6,225.5 C6,235.5 82.5,235.5 82.5,235.5 C82.5,235.5 159,235.5 159,225.5 " fill="none" style="stroke: #000000; stroke-width: 1.5;"/><text fill="#000000" font-family="sans-serif" font-size="14" lengthAdjust="spacingAndGlyphs" textLength="133" x="16" y="254.4659">filtered journal files</text><!--MD5=[76a7822f9a7b7fc9e5b10d2b538caa8b]
entity systemd_journal_upload--><rect fill="#FEFECE" filter="url(#f1n678p86ruryt)" height="39.0679" style="stroke: #A80036; stroke-width: 1.5;" width="181" x="148" y="387"/><rect fill="#FEFECE" height="5" style="stroke: #A80036; stroke-width: 1.5;" width="10" x="143" y="392"/><rect fill="#FEFECE" height="5" style="stroke: #A80036; stroke-width: 1.5;" width="10" x="143" y="416.0679"/><text fill="#000000" font-family="sans-serif" font-size="14" lengthAdjust="spacingAndGlyphs" textLength="161" x="158" y="411.9659">systemd-journal-upload</text><!--MD5=[efa5bef7634984ec2b60b6ae899a8ed3]
entity systemd_journal_remote--><rect fill="#FEFECE" filter="url(#f1n678p86ruryt)" height="39.0679" style="stroke: #A80036; stroke-width: 1.5;" width="182" x="181.5" y="521.5"/><rect fill="#FEFECE" height="5" style="stroke: #A80036; stroke-width: 1.5;" width="10" x="176.5" y="526.5"/><rect fill="#FEFECE" height="5" style="stroke: #A80036; stroke-width: 1.5;" width="10" x="176.5" y="550.5679"/><text fill="#000000" font-family="sans-serif" font-size="14" lengthAdjust="spacingAndGlyphs" textLength="162" x="191.5" y="546.4659">systemd-journal-remote</text><!--MD5=[a9972f08fba46c7420ecd59a99922029]
entity journal_files--><path d="M412.5,527 C412.5,517 501.5,517 501.5,517 C501.5,517 590.5,517 590.5,527 L590.5,555.0679 C590.5,565.0679 501.5,565.0679 501.5,565.0679 C501.5,565.0679 412.5,565.0679 412.5,555.0679 L412.5,527 " fill="#FEFECE" filter="url(#f1n678p86ruryt)" style="stroke: #000000; stroke-width: 1.5;"/><path d="M412.5,527 C412.5,537 501.5,537 501.5,537 C501.5,537 590.5,537 590.5,527 " fill="none" style="stroke: #000000; stroke-width: 1.5;"/><text fill="#000000" font-family="sans-serif" font-size="14" lengthAdjust="spacingAndGlyphs" textLength="158" x="422.5" y="555.9659">/var/log/journal/remote</text><!--MD5=[b4a56f24534413eaab7aa98d39bde886]
entity sd_journal_to_influxdb--><rect fill="#ADD8E6" filter="url(#f1n678p86ruryt)" height="39.0679" style="stroke: #A80036; stroke-width: 1.5;" width="168" x="524.5" y="607"/><rect fill="#ADD8E6" height="5" style="stroke: #A80036; stroke-width: 1.5;" width="10" x="519.5" y="612"/><rect fill="#ADD8E6" height="5" style="stroke: #A80036; stroke-width: 1.5;" width="10" x="519.5" y="636.0679"/><text fill="#000000" font-family="sans-serif" font-size="14" lengthAdjust="spacingAndGlyphs" textLength="148" x="534.5" y="631.9659">sd-journal-to-influxdb</text><!--MD5=[883ea00f0befec22669a509ffaee3a3a]
entity coredump_to_influxdb--><rect fill="#ADD8E6" filter="url(#f1n678p86ruryt)" height="39.0679" style="stroke: #A80036; stroke-width: 1.5;" width="168" x="417.5" y="809"/><rect fill="#ADD8E6" height="5" style="stroke: #A80036; stroke-width: 1.5;" width="10" x="412.5" y="814"/><rect fill="#ADD8E6" height="5" style="stroke: #A80036; stroke-width: 1.5;" width="10" x="412.5" y="838.0679"/><text fill="#000000" font-family="sans-serif" font-size="14" lengthAdjust="spacingAndGlyphs" textLength="148" x="427.5" y="833.9659">coredump-to-influxdb</text><!--MD5=[9707192b7e88357a9c38ee4eac329e3d]
entity mosquitto--><rect fill="#FEFECE" filter="url(#f1n678p86ruryt)" height="39.0679" style="stroke: #A80036; stroke-width: 1.5;" width="88" x="672.5" y="809"/><rect fill="#FEFECE" height="5" style="stroke: #A80036; stroke-width: 1.5;" width="10" x="667.5" y="814"/><rect fill="#FEFECE" height="5" style="stroke: #A80036; stroke-width: 1.5;" width="10" x="667.5" y="838.0679"/><text fill="#000000" font-family="sans-serif" font-size="14" lengthAdjust="spacingAndGlyphs" textLength="68" x="682.5" y="833.9659">Mosquitto</text><!--MD5=[0d5d088432864f0c134be152b48b80eb]
entity telegraf--><rect fill="#FEFECE" filter="url(#f1n678p86ruryt)" height="39.0679" style="stroke: #A80036; stroke-width: 1.5;" width="76" x="678.5" y="909"/><rect fill="#FEFECE" height="5" style="stroke: #A80036; stroke-width: 1.5;" width="10" x="673.5" y="914"/><rect fill="#FEFECE" height="5" style="stroke: #A80036; stroke-width: 1.5;" width="10" x="673.5" y="938.0679"/><text fill="#000000" font-family="sans-serif" font-size="14" lengthAdjust="spacingAndGlyphs" textLength="56" x="688.5" y="933.9659">Telegraf</text><!--MD5=[9a33e24e770c11e9284baa47a10e97c2]
entity influxdb--><path d="M677.5,1019 C677.5,1009 716.5,1009 716.5,1009 C716.5,1009 755.5,1009 755.5,1019 L755.5,1047.0679 C755.5,1057.0679 716.5,1057.0679 716.5,1057.0679 C716.5,1057.0679 677.5,1057.0679 677.5,1047.0679 L677.5,1019 " fill="#FEFECE" filter="url(#f1n678p86ruryt)" style="stroke: #000000; stroke-width: 1.5;"/><path d="M677.5,1019 C677.5,1029 716.5,1029 716.5,1029 C716.5,1029 755.5,1029 755.5,1019 " fill="none" style="stroke: #000000; stroke-width: 1.5;"/><text fill="#000000" font-family="sans-serif" font-size="14" lengthAdjust="spacingAndGlyphs" textLength="58" x="687.5" y="1047.9659">InfluxDB</text><!--MD5=[97029dda41c7f1332efacff3a5502fd8]
entity grafana--><rect fill="#FEFECE" filter="url(#f1n678p86ruryt)" height="39.0679" style="stroke: #A80036; stroke-width: 1.5;" width="74" x="790.5" y="1013.5"/><rect fill="#FEFECE" height="5" style="stroke: #A80036; stroke-width: 1.5;" width="10" x="785.5" y="1018.5"/><rect fill="#FEFECE" height="5" style="stroke: #A80036; stroke-width: 1.5;" width="10" x="785.5" y="1042.5679"/><text fill="#000000" font-family="sans-serif" font-size="14" lengthAdjust="spacingAndGlyphs" textLength="54" x="800.5" y="1038.4659">Grafana</text><!--MD5=[0b86d98a72ab592cf16c1edaf317f6bd]
link systemd_coredump to systemd_journal--><path d="M177.7,32 C187.66,32 197.61,32 207.57,32 " fill="none" id="systemd_coredump-&gt;systemd_journal" style="stroke: #A80036; stroke-width: 1.0;"/><polygon fill="#A80036" points="212.78,32,203.78,28,207.78,32,203.78,36,212.78,32" style="stroke: #A80036; stroke-width: 1.0;"/><!--MD5=[8cb2ad3c6e1cf72e64976c73ab28986f]
link systemd_journal to sd_journal_filter--><path d="M277.5,56.17 C277.5,95.55 277.5,175.11 277.5,214.83 " fill="none" id="systemd_journal-&gt;sd_journal_filter" style="stroke: #A80036; stroke-width: 1.0;"/><polygon fill="#A80036" points="277.5,219.93,281.5,210.93,277.5,214.93,273.5,210.93,277.5,219.93" style="stroke: #A80036; stroke-width: 1.0;"/><!--MD5=[33abdafbbe416da8e755c6946ed0958b]
reverse link filtered_journal_files to sd_journal_filter--><path d="M164.27,239.5 C174.25,239.5 184.24,239.5 194.22,239.5 " fill="none" id="filtered_journal_files&lt;-sd_journal_filter" style="stroke: #A80036; stroke-width: 1.0;"/><polygon fill="#A80036" points="159.05,239.5,168.05,243.5,164.05,239.5,168.05,235.5,159.05,239.5" style="stroke: #A80036; stroke-width: 1.0;"/><!--MD5=[57d5311dbe44576ca78b0d2bb8d1911c]
link filtered_journal_files to systemd_journal_upload--><path d="M104.52,263.79 C134.54,295.55 187.95,352.04 217.46,383.24 " fill="none" id="filtered_journal_files-&gt;systemd_journal_upload" style="stroke: #A80036; stroke-width: 1.0;"/><polygon fill="#A80036" points="220.93,386.92,217.6563,377.6311,217.496,383.2857,211.8415,383.1255,220.93,386.92" style="stroke: #A80036; stroke-width: 1.0;"/><!--MD5=[4d121a66ea76176106a5b0f815396970]
link systemd_journal_upload to systemd_journal_remote--><path d="M243.3,426.2 C249.37,449.88 259.84,490.67 266.46,516.45 " fill="none" id="systemd_journal_upload-&gt;systemd_journal_remote" style="stroke: #A80036; stroke-width: 1.0; stroke-dasharray: 7.0,7.0;"/><polygon fill="#A80036" points="267.73,521.39,269.3672,511.6782,266.4871,516.5469,261.6183,513.6668,267.73,521.39" style="stroke: #A80036; stroke-width: 1.0;"/><text fill="#000000" font-family="sans-serif" font-size="13" lengthAdjust="spacingAndGlyphs" textLength="32" x="256.5" y="470.897">HTTP</text><!--MD5=[381b31163f770df982be2c2fbc9ef5b9]
link systemd_journal_remote to journal_files--><path d="M363.74,541 C378.2,541 392.66,541 407.12,541 " fill="none" id="systemd_journal_remote-&gt;journal_files" style="stroke: #A80036; stroke-width: 1.0;"/><polygon fill="#A80036" points="412.44,541,403.44,537,407.44,541,403.44,545,412.44,541" style="stroke: #A80036; stroke-width: 1.0;"/><!--MD5=[cdd220b5beabbee03568307771107ad6]
link journal_files to sd_journal_to_influxdb--><path d="M531.02,565.04 C546.4,577.04 565.11,591.64 580.3,603.49 " fill="none" id="journal_files-&gt;sd_journal_to_influxdb" style="stroke: #A80036; stroke-width: 1.0;"/><polygon fill="#A80036" points="584.48,606.75,579.8381,598.0636,580.5355,603.6773,574.9219,604.3748,584.48,606.75" style="stroke: #A80036; stroke-width: 1.0;"/><!--MD5=[ed3b695cae2fd00a6a25135b07169493]
link sd_journal_to_influxdb to mosquitto--><path d="M611.4,646.06 C615.81,670.62 625.74,714.71 644.5,748 C656.72,769.69 675.81,790.4 691.26,805.25 " fill="none" id="sd_journal_to_influxdb-&gt;mosquitto" style="stroke: #A80036; stroke-width: 1.0;"/><polygon fill="#A80036" points="695.11,808.89,691.3344,799.7936,691.4829,805.4485,685.828,805.597,695.11,808.89" style="stroke: #A80036; stroke-width: 1.0;"/><text fill="#000000" font-family="sans-serif" font-size="13" lengthAdjust="spacingAndGlyphs" textLength="51" x="645.5" y="690.897">InfluxDB</text><text fill="#000000" font-family="sans-serif" font-size="13" lengthAdjust="spacingAndGlyphs" textLength="25" x="658.5" y="708.603">Line</text><text fill="#000000" font-family="sans-serif" font-size="13" lengthAdjust="spacingAndGlyphs" textLength="51" x="645.5" y="726.309">Protocol</text><text fill="#000000" font-family="sans-serif" font-size="13" lengthAdjust="spacingAndGlyphs" textLength="50" x="646" y="744.0151">in MQTT</text><!--MD5=[79ab147ddc030b901cb0ad57eac08b26]
link journal_files to coredump_to_influxdb--><path d="M501.5,565.36 C501.5,618.8 501.5,749.46 501.5,803.5 " fill="none" id="journal_files-&gt;coredump_to_influxdb" style="stroke: #A80036; stroke-width: 1.0;"/><polygon fill="#A80036" points="501.5,808.79,505.5,799.79,501.5,803.79,497.5,799.79,501.5,808.79" style="stroke: #A80036; stroke-width: 1.0;"/><!--MD5=[440d762c0a83b3da4f1e4025e146f6ac]
link coredump_to_influxdb to mosquitto--><path d="M585.55,828.5 C613.26,828.5 643.15,828.5 667.37,828.5 " fill="none" id="coredump_to_influxdb-&gt;mosquitto" style="stroke: #A80036; stroke-width: 1.0;"/><polygon fill="#A80036" points="672.45,828.5,663.45,824.5,667.45,828.5,663.45,832.5,672.45,828.5" style="stroke: #A80036; stroke-width: 1.0;"/><text fill="#000000" font-family="sans-serif" font-size="13" lengthAdjust="spacingAndGlyphs" textLength="51" x="603.5" y="768.397">InfluxDB</text><text fill="#000000" font-family="sans-serif" font-size="13" lengthAdjust="spacingAndGlyphs" textLength="25" x="616.5" y="786.103">Line</text><text fill="#000000" font-family="sans-serif" font-size="13" lengthAdjust="spacingAndGlyphs" textLength="51" x="603.5" y="803.809">Protocol</text><text fill="#000000" font-family="sans-serif" font-size="13" lengthAdjust="spacingAndGlyphs" textLength="50" x="604" y="821.5151">in MQTT</text><!--MD5=[b867e53ba03bebd211957a277ee45ba9]
link dbus_systemd_signals to posix_mq_to_mqtt--><path d="M741.72,51.6 C726.02,89.1 690.61,173.72 673.34,214.98 " fill="none" id="dbus_systemd_signals-&gt;posix_mq_to_mqtt" style="stroke: #A80036; stroke-width: 1.0;"/><polygon fill="#A80036" points="671.33,219.79,678.4913,213.0286,673.2581,215.1767,671.11,209.9436,671.33,219.79" style="stroke: #A80036; stroke-width: 1.0;"/><text fill="#000000" font-family="sans-serif" font-size="13" lengthAdjust="spacingAndGlyphs" textLength="51" x="740.5" y="100.897">InfluxDB</text><text fill="#000000" font-family="sans-serif" font-size="13" lengthAdjust="spacingAndGlyphs" textLength="79" x="726.5" y="118.603">Line Protocol</text><!--MD5=[01e9bedbdb8778855b201845456eebdf]
link sysinfo to posix_mq_to_mqtt--><path d="M584.37,51.6 C600.25,89.1 636.07,173.72 653.54,214.98 " fill="none" id="sysinfo-&gt;posix_mq_to_mqtt" style="stroke: #A80036; stroke-width: 1.0;"/><polygon fill="#A80036" points="655.58,219.79,655.7631,209.9428,653.6346,215.184,648.3935,213.0555,655.58,219.79" style="stroke: #A80036; stroke-width: 1.0;"/><!--MD5=[767df7f6f8a11a3473591b466c91c77b]
reverse link posix_mq_to_mqtt to epoll_psi--><path d="M762.24,239.5 C772.23,239.5 782.23,239.5 792.22,239.5 " fill="none" id="posix_mq_to_mqtt&lt;-epoll_psi" style="stroke: #A80036; stroke-width: 1.0;"/><polygon fill="#A80036" points="757.02,239.5,766.02,243.5,762.02,239.5,766.02,235.5,757.02,239.5" style="stroke: #A80036; stroke-width: 1.0;"/><!--MD5=[387444c248cb1a225ff4dfd7a76901ff]
link cyclic_file_read to posix_mq_to_mqtt--><path d="M535.11,239.5 C545,239.5 554.9,239.5 564.79,239.5 " fill="none" id="cyclic_file_read-&gt;posix_mq_to_mqtt" style="stroke: #A80036; stroke-width: 1.0;"/><polygon fill="#A80036" points="569.97,239.5,560.97,235.5,564.97,239.5,560.97,243.5,569.97,239.5" style="stroke: #A80036; stroke-width: 1.0;"/><!--MD5=[8163013992e4baaf6de7f750ab2145b6]
reverse link posix_mq_to_mqtt to inotify_pacct--><path d="M635.23,262.38 C612.82,279.69 580.71,304.46 552.5,326 C525.06,346.96 493.46,370.85 472.15,386.92 " fill="none" id="posix_mq_to_mqtt&lt;-inotify_pacct" style="stroke: #A80036; stroke-width: 1.0;"/><polygon fill="#A80036" points="639.29,259.24,629.7224,261.5769,635.3333,262.2968,634.6133,267.9077,639.29,259.24" style="stroke: #A80036; stroke-width: 1.0;"/><!--MD5=[582f721a3d23d8d4f98c5c7be784c866]
reverse link posix_mq_to_mqtt to inotify_coredump--><path d="M654.75,264.18 C642.53,297.22 620.61,356.51 609.45,386.71 " fill="none" id="posix_mq_to_mqtt&lt;-inotify_coredump" style="stroke: #A80036; stroke-width: 1.0;"/><polygon fill="#A80036" points="656.62,259.11,649.7523,266.1694,654.8895,263.801,657.2579,268.9382,656.62,259.11" style="stroke: #A80036; stroke-width: 1.0;"/><!--MD5=[84f83a02621c329d8a0793f69b438483]
link posix_mq_to_mqtt to mosquitto--><path d="M675.07,259 C692.5,288.71 723.5,349.41 723.5,405.5 C723.5,405.5 723.5,405.5 723.5,713 C723.5,744.48 720.83,780.73 718.79,803.86 " fill="none" id="posix_mq_to_mqtt-&gt;mosquitto" style="stroke: #A80036; stroke-width: 1.0; stroke-dasharray: 7.0,7.0;"/><polygon fill="#A80036" points="718.34,808.88,723.1451,800.2828,718.7965,803.9009,715.1785,799.5524,718.34,808.88" style="stroke: #A80036; stroke-width: 1.0;"/><text fill="#000000" font-family="sans-serif" font-size="13" lengthAdjust="spacingAndGlyphs" textLength="51" x="724.5" y="519.897">InfluxDB</text><text fill="#000000" font-family="sans-serif" font-size="13" lengthAdjust="spacingAndGlyphs" textLength="25" x="737.5" y="537.603">Line</text><text fill="#000000" font-family="sans-serif" font-size="13" lengthAdjust="spacingAndGlyphs" textLength="51" x="724.5" y="555.309">Protocol</text><text fill="#000000" font-family="sans-serif" font-size="13" lengthAdjust="spacingAndGlyphs" textLength="50" x="725" y="573.0151">in MQTT</text><!--MD5=[1a5b7fef17590c7a0cbe30186d233223]
link mosquitto to telegraf--><path d="M716.5,848.4 C716.5,864.22 716.5,886.89 716.5,903.91 " fill="none" id="mosquitto-&gt;telegraf" style="stroke: #A80036; stroke-width: 1.0;"/><polygon fill="#A80036" points="716.5,908.99,720.5257,900.0015,716.5143,903.99,712.5257,899.9786,716.5,908.99" style="stroke: #A80036; stroke-width: 1.0;"/><!--MD5=[bfebe985d7bbd941776f7e638e9e0db4]
link telegraf to influxdb--><path d="M716.5,948.3 C716.5,963.7 716.5,985.74 716.5,1003.33 " fill="none" id="telegraf-&gt;influxdb" style="stroke: #A80036; stroke-width: 1.0;"/><polygon fill="#A80036" points="716.5,1008.64,720.5,999.64,716.5,1003.64,712.5,999.64,716.5,1008.64" style="stroke: #A80036; stroke-width: 1.0;"/><!--MD5=[1847b1d4cc48f07af739a09de73965ba]
link influxdb to grafana--><path d="M755.52,1033 C765.42,1033 775.32,1033 785.21,1033 " fill="none" id="influxdb-&gt;grafana" style="stroke: #A80036; stroke-width: 1.0;"/><polygon fill="#A80036" points="790.39,1033,781.39,1029,785.39,1033,781.39,1037,790.39,1033" style="stroke: #A80036; stroke-width: 1.0;"/><!--MD5=[487bd82e0eb28d1d6d8cf62bd5db0ac4]
@startuml components

component "cyclic-file-read\n /proc/stat\n /proc/net/dev\n /proc/diskstats\n /proc/pid/stat\n /proc/pid/statm\n /proc/pid/io\n /sys/class/hwmon " as cyclic_file_read #lightblue
component "epoll-psi" as epoll_psi #lightblue
component "inotify-pacct" as inotify_pacct #lightblue
component "cyclic-sysinfo" as sysinfo #lightblue
component "inotify-coredump" as inotify_coredump #lightblue
component "dbus-systemd-signals" as dbus_systemd_signals #lightblue

component "posix-mq-to-mqtt-bridge" as posix_mq_to_mqtt #lightblue

component "systemd-coredump" as systemd_coredump
database "systemd-journal" as systemd_journal
component "systemd-journal-filter" as sd_journal_filter #lightblue
database "filtered journal files" as filtered_journal_files
component "systemd-journal-upload" as systemd_journal_upload
component "systemd-journal-remote" as systemd_journal_remote
database "/var/log/journal/remote" as journal_files
component "sd-journal-to-influxdb" as sd_journal_to_influxdb #lightblue
component "coredump-to-influxdb" as coredump_to_influxdb #lightblue

component "Mosquitto" as mosquitto
component "Telegraf" as telegraf
database "InfluxDB" as influxdb
component "Grafana" as grafana

systemd_coredump -> systemd_journal
systemd_journal - -> sd_journal_filter
filtered_journal_files <- sd_journal_filter
filtered_journal_files - -> systemd_journal_upload
systemd_journal_upload ..> systemd_journal_remote : HTTP
systemd_journal_remote -> journal_files
journal_files -> sd_journal_to_influxdb
sd_journal_to_influxdb -> mosquitto : "InfluxDB\nLine\nProtocol\nin MQTT"
journal_files - - -> coredump_to_influxdb
coredump_to_influxdb -> mosquitto : "InfluxDB\nLine\nProtocol\nin MQTT"

dbus_systemd_signals - -> posix_mq_to_mqtt : InfluxDB\nLine Protocol
sysinfo - -> posix_mq_to_mqtt
posix_mq_to_mqtt <- epoll_psi
cyclic_file_read -> posix_mq_to_mqtt
posix_mq_to_mqtt <- - inotify_pacct
posix_mq_to_mqtt <- - inotify_coredump

posix_mq_to_mqtt .....> mosquitto : "InfluxDB\nLine\nProtocol\nin MQTT"
mosquitto - -> telegraf
telegraf - -> influxdb
influxdb -> grafana

@enduml

PlantUML version 1.2020.02(Sun Mar 01 11:22:07 CET 2020)
(GPL source distribution)
Java Runtime: OpenJDK Runtime Environment
JVM: OpenJDK 64-Bit Server VM
Java Version: 21.0.6+7-Ubuntu-124.04.1
Operating System: Linux
Default Encoding: UTF-8
Language: en
Country: US
--></g></svg>